<?xml version="1.0" encoding="utf-8"?>
<!-- Generator: Adobe Illustrator 25.0.0, SVG Export Plug-In . SVG Version: 6.00 Build 0)  -->
<svg version="1.1" id="Layer_1" focusable="false" xmlns="http://www.w3.org/2000/svg" xmlns:xlink="http://www.w3.org/1999/xlink"
	 x="0px" y="0px" viewBox="0 0 50.9 48" style="enable-background:new 0 0 50.9 48;" xml:space="preserve">
<style type="text/css">
	.st0{fill:#B1B4B6;}
	.st1{fill:#D4351C;}
	.st2{fill:#FFFFFF;}
</style>
<path class="st0" d="M25.5,5.5l-20,35.9h39.9L25.5,5.5z"/>
<path class="st1" d="M25.5,0c-2,0-3.9,1.1-4.8,2.9l-20,35.9c-1,1.7-0.9,3.8,0.1,5.5S3.6,47,5.6,47h39.8c2,0,3.8-1,4.8-2.7
	s1-3.8,0.1-5.5l-20-35.9C29.3,1.1,27.5,0,25.5,0z"/>
<path class="st2" d="M21.7,37.7c0-0.5,0.1-1,0.3-1.4c0.2-0.4,0.5-0.8,0.8-1.2c0.3-0.3,0.7-0.6,1.2-0.8s1-0.3,1.5-0.3s1,0.1,1.4,0.3
	s0.8,0.5,1.2,0.8c0.3,0.3,0.6,0.7,0.8,1.2c0.2,0.4,0.3,0.9,0.3,1.4s-0.1,1-0.3,1.5c-0.2,0.5-0.5,0.9-0.8,1.2s-0.7,0.6-1.2,0.8
	c-0.4,0.2-0.9,0.3-1.4,0.3s-1-0.1-1.5-0.3s-0.9-0.5-1.2-0.8c-0.3-0.3-0.6-0.7-0.8-1.2C21.8,38.7,21.7,38.2,21.7,37.7z M21.7,13.1
	c0,0-0.8-3.9,3.7-3.9c4.7,0,3.7,3.9,3.7,3.9l-2.7,17.5h-2L21.7,13.1z"/>
</svg>
